<svg xmlns="http://www.w3.org/2000/svg" viewBox="0 0 400 300" width="406" height="306" class="illustration styles_illustrationTablet__1DWOa"><g id="_195_family_outline" data-name="#195_family_outline"><path d="M114,227.83h64.69l.95-44.36c.15-7.81-2-21.15-33.29-21.15s-33.44,13.34-33.3,21.15Z" fill="#D76E75"></path><path d="M178.71,228.83H114a1,1,0,0,1-1-1l-1-44.37c-.07-3.79.36-9.35,4.88-14,5.34-5.45,15.24-8.22,29.42-8.22s24.07,2.77,29.42,8.22c4.52,4.6,5,10.16,4.88,13.94l-1,44.38A1,1,0,0,1,178.71,228.83Zm-63.71-2h62.73l.94-43.39c.06-3.42-.32-8.44-4.3-12.5-5-5.05-14.38-7.62-28-7.62s-23,2.57-28,7.62c-4,4.06-4.36,9.08-4.3,12.51Z" fill="#093f68"></path><rect x="140.87" y="162.32" width="10.99" height="65.51" fill="#093f68"></rect><path d="M151.86,228.73h-11a.9.9,0,0,1-.9-.9V162.32a.89.89,0,0,1,.9-.89h11a.89.89,0,0,1,.9.89v65.51A.9.9,0,0,1,151.86,228.73Zm-10.09-1.79H151V163.22h-9.19Z" fill="#093f68"></path><path d="M141.83,157.78h9.08a0,0,0,0,1,0,0V163a3.85,3.85,0,0,1-3.85,3.85h-1.37a3.85,3.85,0,0,1-3.85-3.85v-5.23A0,0,0,0,1,141.83,157.78Z" fill="#ffc9b0"></path><path d="M147.05,167.86h-1.37a4.85,4.85,0,0,1-4.85-4.85v-5.23a1,1,0,0,1,1-1h9.08a1,1,0,0,1,1,1V163A4.86,4.86,0,0,1,147.05,167.86Zm-4.22-9.08V163a2.86,2.86,0,0,0,2.85,2.85h1.37a2.86,2.86,0,0,0,2.86-2.85v-4.23Z" fill="#093f68"></path><path d="M115,132.59c-4.22-1.6-4-4.82-4.6-9a107,107,0,0,1-1.16-12.36c-.16-4.71,0-9.54,1.79-13.9,2.29-5.61,6.82-9.23,12.88-8.73-.18-8.27,4.78-16,13.57-16.49,14.08-.75,22.17,14.36,30.05,13.24s10-4.62,10-4.62a14.42,14.42,0,0,1-1.69,15.93s6.2-1.81,6.95,6.45-4.18,30.19-4.18,30.19l-5.63-1c-2.37-.42-5.32.16-7.7.24l-17.6.55C138.87,133.43,124.6,136.22,115,132.59Z" fill="#725858"></path><path d="M127.71,135.43a37.41,37.41,0,0,1-13-1.91c-4.17-1.58-4.57-4.72-5-8.05-.07-.54-.14-1.1-.23-1.68a106.65,106.65,0,0,1-1.18-12.48c-.15-4.44-.05-9.61,1.87-14.31,2.43-6,7.14-9.4,12.74-9.4h.07c.24-8,5.16-15.94,14.51-16.44,8.2-.44,14.57,4.36,19.66,8.21,3.89,2.94,7.26,5.47,10.3,5,7.21-1,9.25-4.13,9.27-4.16a1,1,0,0,1,.86-.47,1,1,0,0,1,.85.49,15.62,15.62,0,0,1-.51,15.3,5.88,5.88,0,0,1,2.79,1c1.79,1.22,2.84,3.41,3.12,6.52.76,8.32-4,29.6-4.21,30.5a1,1,0,0,1-1.14.77c-3.94-.69-5.19-.91-5.63-1h0a20.23,20.23,0,0,0-5,.07c-.89.08-1.72.16-2.53.19l-17.6.55c-2.19.07-4.76.29-7.49.54C136.34,135,132,135.43,127.71,135.43ZM122.85,89.6c-4.81,0-8.73,2.93-10.87,8.16-1.78,4.35-1.87,9.25-1.72,13.48a104.69,104.69,0,0,0,1.15,12.24c.1.6.17,1.18.24,1.74.42,3.29.67,5.28,3.72,6.43h0c6.95,2.64,16.78,1.76,24.68,1.06,2.75-.25,5.35-.48,7.6-.55l17.6-.55c.74,0,1.55-.1,2.4-.18a21.59,21.59,0,0,1,5.5-.05l4.69.82c.92-4.25,4.6-21.9,4-28.95-.23-2.47-1-4.17-2.24-5a4.51,4.51,0,0,0-3.44-.55,1,1,0,0,1-1.11-.41,1,1,0,0,1,.06-1.18,13.28,13.28,0,0,0,2.19-13.52c-1.4,1.25-4.26,3.07-9.56,3.83-3.88.56-7.55-2.22-11.79-5.42-5.09-3.85-10.84-8.21-18.36-7.81-8.49.45-12.78,8.12-12.62,15.47a1,1,0,0,1-.31.75,1,1,0,0,1-.77.26C123.51,89.62,123.18,89.6,122.85,89.6Z" fill="#093f68"></path><ellipse cx="120.42" cy="134.2" rx="8.82" ry="7.6" fill="#ffc9b0"></ellipse><path d="M120.42,142.8c-5.42,0-9.82-3.86-9.82-8.6s4.4-8.61,9.82-8.61,9.82,3.86,9.82,8.61S125.83,142.8,120.42,142.8Zm0-15.21c-4.32,0-7.82,3-7.82,6.61s3.5,6.6,7.82,6.6,7.82-3,7.82-6.6S124.73,127.59,120.42,127.59Z" fill="#093f68"></path><ellipse cx="171.85" cy="134.2" rx="8.82" ry="7.6" fill="#ffc9b0"></ellipse><path d="M171.85,142.8c-5.42,0-9.82-3.86-9.82-8.6s4.4-8.61,9.82-8.61,9.82,3.86,9.82,8.61S177.27,142.8,171.85,142.8Zm0-15.21c-4.31,0-7.82,3-7.82,6.61s3.51,6.6,7.82,6.6,7.82-3,7.82-6.6S176.16,127.59,171.85,127.59Z" fill="#093f68"></path><path d="M146.37,159h0a26.6,26.6,0,0,1-26.61-26.6V113.05c1.56,2.55,6.72,1.54,14.29-11.45C162.39,116,173,107.73,173,107.73v24.64A26.61,26.61,0,0,1,146.37,159Z" fill="#ffc9b0"></path><path d="M146.37,160a27.64,27.64,0,0,1-27.61-27.6V113.05a1,1,0,0,1,.73-1,1,1,0,0,1,1.13.44,1.25,1.25,0,0,0,1.2.64c1,0,4.86-.91,11.37-12.07a1,1,0,0,1,1.31-.39c27.46,13.91,37.76,6.31,37.86,6.23a1,1,0,0,1,1.62.79v24.64A27.64,27.64,0,0,1,146.37,160ZM120.76,115v17.34a25.61,25.61,0,0,0,51.22,0V109.43c-3.93,1.77-15.28,4.55-37.54-6.52-4.72,7.89-9.18,12.23-12.6,12.26A3.52,3.52,0,0,1,120.76,115Z" fill="#093f68"></path><path d="M127.1,227.83c-1-16.24-1.94-32.78-2.78-49.39" fill="#D76E75"></path><path d="M127.1,228.83a1,1,0,0,1-1-.93c-1.08-17.62-2-33.78-2.78-49.41a1,1,0,0,1,2-.1c.79,15.62,1.7,31.78,2.78,49.38a1,1,0,0,1-.94,1.06Z" fill="#093f68"></path><path d="M165.64,227.83c1-16.24,2-32.78,2.78-49.39" fill="#D76E75"></path><path d="M165.64,228.83h-.06a1,1,0,0,1-.94-1.06c1.08-17.19,2-33.8,2.78-49.38a1,1,0,0,1,1.05-.95,1,1,0,0,1,.95,1.05c-.77,15.58-1.71,32.21-2.78,49.41A1,1,0,0,1,165.64,228.83Z" fill="#093f68"></path><circle cx="133.51" cy="128.53" r="2.74" fill="#093f68"></circle><circle cx="160.29" cy="128.53" r="2.74" fill="#093f68"></circle><path d="M146.31,137.4a15.67,15.67,0,0,1-2.69-.23,1,1,0,0,1-.82-1.15,1,1,0,0,1,1.16-.82,12.87,12.87,0,0,0,3.9.07c.06-.89-1-3.69-2.3-6.28a1,1,0,1,1,1.77-.92c1,1.85,3.13,6.36,2.32,8.17a1.6,1.6,0,0,1-1.09.92A9.4,9.4,0,0,1,146.31,137.4Z" fill="#093f68"></path><path d="M131.7,139.67a10.13,10.13,0,1,1,10.12-10.12A10.13,10.13,0,0,1,131.7,139.67Zm0-18.25a8.13,8.13,0,1,0,8.12,8.13A8.14,8.14,0,0,0,131.7,121.42Z" fill="#093f68"></path><path d="M161,139.67a10.13,10.13,0,1,1,10.13-10.12A10.13,10.13,0,0,1,161,139.67Zm0-18.25a8.13,8.13,0,1,0,8.13,8.13A8.14,8.14,0,0,0,161,121.42Z" fill="#093f68"></path><path d="M140.83,128.2a1,1,0,0,1-.82-.43,1,1,0,0,1,.24-1.39c.25-.18,6.35-4.39,12.12-1a1,1,0,0,1,.35,1.37,1,1,0,0,1-1.37.35c-4.64-2.74-9.9.86-9.95.9A1,1,0,0,1,140.83,128.2Z" fill="#093f68"></path><path d="M138.36,118.74h0l-13,0a2,2,0,0,1,0-4h0l13,0a2,2,0,0,1,0,4Z" fill="#093f68"></path><path d="M170,118.39h-14.4a2,2,0,0,1,0-4H170a2,2,0,0,1,0,4Z" fill="#093f68"></path><path d="M155.59,143.78s-7.28,3.69-17.23,0" fill="#ffc9b0"></path><path d="M147.27,146.43a26.39,26.39,0,0,1-9.26-1.72,1,1,0,1,1,.7-1.87c9.38,3.48,16.36.08,16.43,0a1,1,0,0,1,.9,1.79A20.75,20.75,0,0,1,147.27,146.43Z" fill="#093f68"></path><path d="M288.63,114.23a46.6,46.6,0,0,0-4.3-16.88c-7-14.46-29.75-28.44-42.48-12.85a2.31,2.31,0,0,1-.92.81,2.23,2.23,0,0,1-.77.09c-10.85.16-15,8-17.63,17.36a35,35,0,0,0-1.1,7.07,40.37,40.37,0,0,0-.27,4.43,39.11,39.11,0,0,0,.41,5.67c.28,4.37.72,8.69.9,12.52q.74,16.17,2.61,32.25c.15,1.32,13.4,3.29,15,3.55a118.68,118.68,0,0,0,32.54,1c5.06-.53,10.67.79,12.92-5.13,1.13-3,.87-6.2.8-9.35-.18-9.29,1.46-18.5,2.19-27.76A81.42,81.42,0,0,0,288.63,114.23Z" fill="#725858"></path><path d="M260,170.92c-1.13,0-2.26,0-3.39,0a120.94,120.94,0,0,1-16.69-1.64l-.77-.13c-14.81-2.35-14.92-3.29-15-4.29-1.24-10.69-2.12-21.57-2.61-32.32-.1-2.19-.29-4.53-.49-7-.14-1.8-.29-3.65-.41-5.5a38.87,38.87,0,0,1-.13-10.29,34.64,34.64,0,0,1,1.12-7.21c2.45-8.85,6.58-17.92,18.58-18.1a1.64,1.64,0,0,0,.44,0,1.79,1.79,0,0,0,.48-.48,18.67,18.67,0,0,1,17.36-7.08c10.31,1.21,21.83,9.85,26.8,20.1a47,47,0,0,1,4.41,17.24,83,83,0,0,1-.12,12.94c-.24,3.09-.59,6.22-.93,9.24a141.31,141.31,0,0,0-1.26,18.42l0,1.16c.08,2.85.16,5.8-.89,8.56-2,5.34-6.64,5.48-10.7,5.61-1,0-2.06.06-3.05.17A120.11,120.11,0,0,1,260,170.92ZM226,164.28c.67.37,3.28,1.25,13.4,2.86l.79.13a118.37,118.37,0,0,0,32.28,1c1.06-.11,2.15-.15,3.19-.18,4.1-.13,7.34-.23,8.9-4.32.91-2.39.84-5.14.76-7.8l0-1.17a142.71,142.71,0,0,1,1.27-18.68c.34-3,.68-6.12.93-9.18a80.19,80.19,0,0,0,.11-12.63h0a45,45,0,0,0-4.2-16.51c-4.7-9.69-15.55-17.85-25.24-19a16.75,16.75,0,0,0-15.56,6.33,3.21,3.21,0,0,1-1.36,1.12,3,3,0,0,1-1.06.15c-10.72.16-14.47,8.5-16.72,16.63a33.42,33.42,0,0,0-1.06,6.86,40.3,40.3,0,0,0-.27,4.37,38,38,0,0,0,.4,5.53c.12,1.92.27,3.76.42,5.55.2,2.49.39,4.84.49,7.06C224,143,224.81,153.73,226,164.28Z" fill="#093f68"></path><path d="M286.44,227.83l2.39-39.69a25.79,25.79,0,0,0-25.69-25.9h-17a25.79,25.79,0,0,0-25.69,25.9l2.39,39.69Z" fill="#D76E75"></path><path d="M286.44,228.83H222.88a1,1,0,0,1-1-.94l-2.4-39.69a26.84,26.84,0,0,1,26.69-27h17a26.83,26.83,0,0,1,26.69,26.9l-2.39,39.75A1,1,0,0,1,286.44,228.83Zm-62.61-2H285.5l2.33-38.75a24.81,24.81,0,0,0-24.69-24.84h-17a24.83,24.83,0,0,0-24.69,24.9Z" fill="#093f68"></path><polygon points="249.88 162.24 254.54 197.31 259.44 162.24 249.88 162.24" fill="#fff"></polygon><path d="M254.54,198.21h0a.9.9,0,0,1-.89-.78L249,162.35a.86.86,0,0,1,.21-.7.89.89,0,0,1,.68-.31h9.56a.89.89,0,0,1,.68.31.87.87,0,0,1,.21.71l-4.9,35.07A.9.9,0,0,1,254.54,198.21Zm-3.64-35.07,3.66,27.52,3.85-27.52Z" fill="#093f68"></path><path d="M249.88,156.73h9.56a0,0,0,0,1,0,0v5.5a4.06,4.06,0,0,1-4.06,4.06h-1.44a4.06,4.06,0,0,1-4.06-4.06v-5.5A0,0,0,0,1,249.88,156.73Z" fill="#ffc9b0"></path><path d="M255.38,167.3h-1.44a5.07,5.07,0,0,1-5.06-5.06v-5.51a1,1,0,0,1,1-1h9.56a1,1,0,0,1,1,1v5.51A5.07,5.07,0,0,1,255.38,167.3Zm-4.5-9.57v4.51a3.07,3.07,0,0,0,3.06,3.06h1.44a3.07,3.07,0,0,0,3.06-3.06v-4.51Z" fill="#093f68"></path><ellipse cx="227.33" cy="131.89" rx="9.29" ry="8.01" fill="#ffc9b0"></ellipse><path d="M227.33,140.9c-5.67,0-10.29-4-10.29-9s4.62-9,10.29-9,10.29,4,10.29,9S233,140.9,227.33,140.9Zm0-16c-4.57,0-8.29,3.14-8.29,7s3.72,7,8.29,7,8.29-3.14,8.29-7S231.9,124.89,227.33,124.89Z" fill="#093f68"></path><ellipse cx="281.5" cy="131.89" rx="9.29" ry="8.01" fill="#ffc9b0"></ellipse><path d="M281.5,140.9c-5.68,0-10.3-4-10.3-9s4.62-9,10.3-9,10.29,4,10.29,9S287.17,140.9,281.5,140.9Zm0-16c-4.58,0-8.3,3.14-8.3,7s3.72,7,8.3,7,8.29-3.14,8.29-7S286.07,124.89,281.5,124.89Z" fill="#093f68"></path><path d="M271.7,108.17a26.48,26.48,0,0,1-9.92-2.28c-4.88-2.28-9-5.81-12.94-9.51-2.57,7-9.69,11.17-16.29,14.73-1.42.76-3.25,1.49-4.51.5-1.36,5.88-1.4,12.34-1.4,18.36a28,28,0,0,0,56,0V108.18C279,108.17,275.34,108.38,271.7,108.17Z" fill="#ffc9b0"></path><path d="M254.66,159a29.06,29.06,0,0,1-29-29c0-5.53,0-12.41,1.43-18.59a1,1,0,0,1,.64-.72,1,1,0,0,1,1,.16c.62.5,1.73.3,3.4-.59,7-3.76,13.45-7.67,15.83-14.2a1,1,0,0,1,1.62-.38c3.5,3.32,7.74,7,12.68,9.34a25.6,25.6,0,0,0,9.56,2.18c2.35.14,4.78.09,7.13,0,1.27,0,2.54,0,3.79,0a1,1,0,0,1,1,1V130A29.06,29.06,0,0,1,254.66,159Zm-25.89-46c-1.13,5.66-1.13,11.89-1.13,17a27,27,0,0,0,54,0V109.18l-2.75,0c-2.39,0-4.86.09-7.29,0h0a27.64,27.64,0,0,1-10.29-2.37,48.87,48.87,0,0,1-12.14-8.7c-3,6.34-9.34,10.2-16.19,13.89A6.91,6.91,0,0,1,228.77,113Z" fill="#093f68"></path><circle cx="241.69" cy="125.89" r="2.59" fill="#093f68"></circle><circle cx="268.45" cy="125.89" r="2.59" fill="#093f68"></circle><path d="M254.53,135.61a16.72,16.72,0,0,1-2.56-.21,1,1,0,0,1,.34-2,12.59,12.59,0,0,0,3.64.07c0-.87-.92-3.48-2.18-5.89a1,1,0,0,1,1.78-.92c.92,1.76,3,6.06,2.2,7.79a1.58,1.58,0,0,1-1.07.9A8.59,8.59,0,0,1,254.53,135.61Z" fill="#093f68"></path><path d="M247,118.6h0l-12.38,0a1.59,1.59,0,0,1,0-3.18h0l12.37,0a1.59,1.59,0,1,1,0,3.18Z" fill="#093f68"></path><path d="M264.63,118.9a1.59,1.59,0,0,1-.08-3.18l12.35-.63a1.59,1.59,0,0,1,.17,3.18l-12.36.63Z" fill="#093f68"></path><path d="M256.43,146.43c-5.92,0-12.23-3.24-12.61-3.43a1,1,0,0,1,.92-1.78c.12.07,12,6.12,17.23,1.44a1,1,0,0,1,1.33,1.5A10.09,10.09,0,0,1,256.43,146.43Z" fill="#093f68"></path><path d="M237,228.87a1,1,0,0,1-1-1c-.06-1.66-.09-3.43-.12-5.27-.14-8.55-.31-19.18-3.55-27.29-1.92-5.74.4-11.43,2.45-16.44l.75-1.85a1,1,0,1,1,1.85.74c-.24.61-.49,1.24-.75,1.86-2,4.93-4.09,10-2.42,15,3.35,8.39,3.53,19.23,3.67,27.94,0,1.83.06,3.59.12,5.23a1,1,0,0,1-1,1Z" fill="#093f68"></path><path d="M272.35,228.87h0a1,1,0,0,1-1-1c.06-1.65.09-3.41.12-5.24.14-8.71.32-19.55,3.69-28,1.65-4.93-.43-10-2.44-14.95-.26-.62-.51-1.25-.75-1.86a1,1,0,0,1,.56-1.3,1,1,0,0,1,1.3.56l.74,1.85c2.05,5,4.37,10.7,2.47,16.39-3.26,8.16-3.43,18.79-3.57,27.33,0,1.85-.06,3.62-.12,5.28A1,1,0,0,1,272.35,228.87Z" fill="#093f68"></path><path d="M230.23,159.15a31.51,31.51,0,0,0-3.71-12.67c-6-10.87-25.6-21.36-36.56-9.65a1.91,1.91,0,0,1-.8.6,2.09,2.09,0,0,1-.66.07c-9.33.12-12.95,6-15.18,13a23,23,0,0,0-.94,5.31,25.24,25.24,0,0,0,.12,7.59c.24,3.28.62,6.52.77,9.4q.63,12.15,2.25,24.23c.13,1,11.54,2.46,12.89,2.66a118.25,118.25,0,0,0,28,.76c4.35-.41,9.18.58,11.12-3.86,1-2.21.74-4.66.69-7-.16-7,1.25-13.89,1.88-20.84A53.21,53.21,0,0,0,230.23,159.15Z" fill="#725858"></path><path d="M205.56,202c-1,0-1.95,0-2.93,0a118.7,118.7,0,0,1-14.36-1.23l-.67-.09c-12.85-1.79-12.95-2.48-13.07-3.43-1.08-8-1.84-16.22-2.26-24.31-.08-1.63-.24-3.37-.41-5.22-.13-1.36-.26-2.75-.36-4.16a26.55,26.55,0,0,1-.35-4.33,28,28,0,0,1,.24-3.46,23.7,23.7,0,0,1,1-5.48c2-6.32,5.65-13.6,16.12-13.74a1.79,1.79,0,0,0,.37,0,1.6,1.6,0,0,0,.35-.32c4-4.24,9.31-6.07,15.49-5.3,8.74,1.07,18.5,7.58,22.69,15.13a32.08,32.08,0,0,1,3.83,13.07,54.75,54.75,0,0,1-.1,9.79c-.21,2.32-.51,4.67-.8,7a90.78,90.78,0,0,0-1.08,13.78l0,.86a14.78,14.78,0,0,1-.79,6.59c-1.8,4.12-5.8,4.23-9.33,4.32-.87,0-1.76.05-2.62.13C212.9,201.82,209.22,202,205.56,202Zm-29.1-5.44c.7.29,3.11.94,11.41,2.1l.69.09a116.9,116.9,0,0,0,27.78.75c.91-.09,1.85-.11,2.75-.13,3.36-.09,6.25-.17,7.54-3.13a13,13,0,0,0,.63-5.73l0-.87a94.06,94.06,0,0,1,1.09-14.09c.29-2.25.59-4.58.8-6.87a52.62,52.62,0,0,0,.1-9.43A30.22,30.22,0,0,0,225.65,147c-3.92-7-13-13.11-21.2-14.12a15.59,15.59,0,0,0-13.76,4.67,2.82,2.82,0,0,1-1.23.87,2.91,2.91,0,0,1-.92.12c-9.13.12-12.25,6-14.26,12.35a21.71,21.71,0,0,0-.9,5.07,25.6,25.6,0,0,0-.23,3.26,24.66,24.66,0,0,0,.34,4.1c.11,1.48.24,2.86.36,4.21.17,1.86.33,3.63.42,5.3C174.68,180.69,175.42,188.69,176.46,196.55Z" fill="#093f68"></path><path d="M225.77,227.87l.92-14.36c0-10.1-8.64-18.3-19.3-18.3H194.65c-10.66,0-19.29,8.2-19.29,18.3l.92,14.36Z" fill="#fff"></path><path d="M225.77,228.77H176.28a.9.9,0,0,1-.9-.84l-.92-14.36c0-10.64,9.06-19.25,20.19-19.25h12.74c11.14,0,20.19,8.61,20.19,19.19l-.92,14.42A.9.9,0,0,1,225.77,228.77ZM177.12,227h47.8l.87-13.51c0-9.54-8.25-17.35-18.4-17.35H194.65c-10.14,0-18.4,7.81-18.4,17.4Z" fill="#093f68"></path><path d="M197.43,191.08h7.18a0,0,0,0,1,0,0v4.13a3,3,0,0,1-3,3h-1.08a3,3,0,0,1-3-3v-4.13A0,0,0,0,1,197.43,191.08Z" fill="#ffc9b0"></path><path d="M201.56,199.26h-1.08a4.05,4.05,0,0,1-4-4v-4.13a1,1,0,0,1,1-1h7.18a1,1,0,0,1,1,1v4.13A4,4,0,0,1,201.56,199.26Zm-3.13-7.18v3.13a2.05,2.05,0,0,0,2,2h1.08a2.05,2.05,0,0,0,2.05-2v-3.13Z" fill="#093f68"></path><ellipse cx="226.65" cy="172.42" rx="6.98" ry="6.01" fill="#ffc9b0"></ellipse><path d="M226.65,179.44c-4.4,0-8-3.15-8-7s3.58-7,8-7,8,3.15,8,7S231.05,179.44,226.65,179.44Zm0-12c-3.3,0-6,2.25-6,5s2.68,5,6,5,6-2.25,6-5S229.94,167.41,226.65,167.41Z" fill="#093f68"></path><ellipse cx="175.4" cy="172.42" rx="6.98" ry="6.01" fill="#ffc9b0"></ellipse><path d="M175.4,179.44c-4.4,0-8-3.15-8-7s3.58-7,8-7,8,3.15,8,7S179.79,179.44,175.4,179.44Zm0-12c-3.3,0-6,2.25-6,5s2.68,5,6,5,6-2.25,6-5S178.69,167.41,175.4,167.41Z" fill="#093f68"></path><path d="M216.08,154.6a26.9,26.9,0,0,1-8.77-1.71,44.72,44.72,0,0,1-11.44-7.14c-2.26,5.29-8.56,8.39-14.39,11.06-1.25.57-2.87,1.12-4,.37-1.2,4.42-1.24,9.28-1.24,13.8,0,11.62,11.09,21,24.76,21s24.76-9.42,24.76-21V154.61C222.56,154.6,219.29,154.76,216.08,154.6Z" fill="#ffc9b0"></path><path d="M201,193c-14.2,0-25.76-9.89-25.76-22,0-4.18,0-9.37,1.28-14.06a1,1,0,0,1,1.52-.57c.54.37,1.55.21,3-.45,6.15-2.81,11.83-5.73,13.89-10.55a1,1,0,0,1,.68-.58,1,1,0,0,1,.87.2,44.27,44.27,0,0,0,11.18,7,25.82,25.82,0,0,0,8.45,1.64h0c2.08.11,4.23.08,6.31,0l3.34,0a1,1,0,0,1,1,1V171C226.78,183.13,215.23,193,201,193ZM178.2,158.5a57.76,57.76,0,0,0-.94,12.48c0,11.05,10.66,20,23.76,20s23.76-9,23.76-20V155.61l-2.31,0c-2.11,0-4.3.07-6.44,0a27.83,27.83,0,0,1-9.09-1.78,43.63,43.63,0,0,1-10.72-6.52c-2.66,4.77-8.29,7.66-14.33,10.42A6.71,6.71,0,0,1,178.2,158.5Z" fill="#093f68"></path><circle cx="191.28" cy="167.91" r="1.95" fill="#093f68"></circle><circle cx="211.38" cy="167.91" r="1.95" fill="#093f68"></circle><path d="M200.91,175.47a11.34,11.34,0,0,1-2-.17,1,1,0,0,1,.35-2,9.71,9.71,0,0,0,2.42.09,15.82,15.82,0,0,0-1.59-4.1,1,1,0,1,1,1.78-.92c.88,1.69,2.26,4.72,1.66,6.07a1.43,1.43,0,0,1-1,.82A7.41,7.41,0,0,1,200.91,175.47Z" fill="#093f68"></path><path d="M195.26,162.83h0l-9.29,0a1.59,1.59,0,0,1,0-3.18h0l9.29,0a1.59,1.59,0,1,1,0,3.18Z" fill="#093f68"></path><path d="M208.51,163.06a1.59,1.59,0,0,1-.08-3.18l9.28-.47a1.59,1.59,0,1,1,.16,3.17l-9.28.48Z" fill="#093f68"></path><path d="M202.35,183.58c-4.51,0-9.3-2.45-9.59-2.59a1,1,0,0,1,.93-1.78c.08,0,8.83,4.52,12.66,1.12a1,1,0,0,1,1.33,1.49A7.83,7.83,0,0,1,202.35,183.58Z" fill="#093f68"></path><path d="M184.46,228.87a1,1,0,0,1-1-1V206.73a1,1,0,0,1,2,0v21.14A1,1,0,0,1,184.46,228.87Z" fill="#093f68"></path><path d="M217.79,228.87a1,1,0,0,1-1-1V206.73a1,1,0,0,1,2,0v21.14A1,1,0,0,1,217.79,228.87Z" fill="#093f68"></path><rect x="184.46" y="207.75" width="33.33" height="20.11" fill="#D76E75"></rect><path d="M217.79,228.87H184.46a1,1,0,0,1-1-1V207.75a1,1,0,0,1,1-1h33.33a1,1,0,0,1,1,1v20.12A1,1,0,0,1,217.79,228.87Zm-32.33-2h31.33V208.75H185.46Z" fill="#093f68"></path><path d="M190.35,194.67h4.19a0,0,0,0,1,0,0v16.56a2.09,2.09,0,0,1-2.09,2.09h0a2.09,2.09,0,0,1-2.09-2.09V194.67A0,0,0,0,1,190.35,194.67Z" fill="#D76E75"></path><path d="M192.45,214.33a3.1,3.1,0,0,1-3.1-3.1V194.67a1,1,0,0,1,1-1h4.19a1,1,0,0,1,1,1v16.56A3.1,3.1,0,0,1,192.45,214.33Zm-1.1-18.66v15.56a1.1,1.1,0,1,0,2.19,0V195.67Z" fill="#093f68"></path><path d="M208.15,194.67h4.19a0,0,0,0,1,0,0v16.56a2.09,2.09,0,0,1-2.09,2.09h0a2.09,2.09,0,0,1-2.09-2.09V194.67a0,0,0,0,1,0,0Z" fill="#D76E75"></path><path d="M210.24,214.33a3.1,3.1,0,0,1-3.09-3.1V194.67a1,1,0,0,1,1-1h4.19a1,1,0,0,1,1,1v16.56A3.1,3.1,0,0,1,210.24,214.33Zm-1.09-18.66v15.56a1.1,1.1,0,1,0,2.19,0V195.67Z" fill="#093f68"></path></g></svg>