<svg xmlns="http://www.w3.org/2000/svg" viewBox="0 0 400 300" width="406" height="306" class="illustration styles_illustrationTablet__1DWOa"><g id="_143_super_woman_outline" data-name="#143_super_woman_outline"><path d="M130.5,207.09c2.45.28,5,.21,7.3,1.12,6.89,2.74,7.77,12.27,13,17.56,10.45,10.61,26.41,12.86,39.95,7.24,6.75-2.8,10.69-7.23,15-12.9,4.54-6,4.57-12.92,4.39-20.3-.14-6-.34-12-2.15-17.69s-5.5-11-10.92-13.5c-6-2.72-12.91-1.6-19.33-.27-10.16,2.11-20.42,4.69-29.31,10.06-5.89,3.56-11,8.28-17,11.69a30.72,30.72,0,0,1-9.64,3.69c-3.46.63-6.79-.46-10-.15C114,201,123.26,206.24,130.5,207.09Z" fill="#f56132"></path><path d="M175.8,236.93a35.78,35.78,0,0,1-25.66-10.53c-2.22-2.25-3.67-5.2-5.07-8.05-2-4-3.83-7.81-7.6-9.31a17.39,17.39,0,0,0-5-.88c-.68,0-1.36-.1-2-.18h0c-7.74-.91-17.15-6.42-19.5-14.08a.9.9,0,0,1,.77-1.16,23.39,23.39,0,0,1,4.51.15,19.53,19.53,0,0,0,5.4,0,30.21,30.21,0,0,0,9.36-3.59,91.58,91.58,0,0,0,8.95-6.1c2.58-1.91,5.24-3.88,8.05-5.58,9.35-5.66,20.18-8.21,29.59-10.17,6.66-1.38,13.69-2.5,19.88.33,5.14,2.35,9.3,7.47,11.4,14,1.91,6,2.06,12.33,2.2,17.94.19,8.14,0,14.85-4.58,20.86-4,5.24-8.13,10.19-15.35,13.19A39.75,39.75,0,0,1,175.8,236.93ZM113,194.48c2.67,6.3,11,10.94,17.59,11.71h0c.65.08,1.31.13,2,.18a18.54,18.54,0,0,1,5.57,1c4.41,1.75,6.52,6,8.56,10.18,1.33,2.72,2.72,5.53,4.73,7.58,9.87,10,25.16,12.78,39,7,6.82-2.83,10.65-7.38,14.61-12.61,4.2-5.56,4.4-11.95,4.21-19.74-.13-5.49-.28-11.71-2.11-17.43-2-6.1-5.76-10.83-10.44-13-5.7-2.61-12.39-1.53-18.77-.21-9.26,1.92-19.91,4.44-29,10-2.73,1.65-5.36,3.6-7.91,5.48a91,91,0,0,1-9.13,6.22,31.77,31.77,0,0,1-9.93,3.79,20.76,20.76,0,0,1-5.89,0C115,194.58,114,194.48,113,194.48Z" fill="#093f68"></path><path d="M177.94,63.05c-6.33-3-14.27-1.32-19.64,3.18a20.62,20.62,0,0,0-7.25,18.7c1.14,6.91,6.68,13,13.56,14.32s14.53-2.67,17-9.23C185,80.79,190,68.75,177.94,63.05Z" fill="#725858"></path><path d="M167.23,100.49a14.77,14.77,0,0,1-2.81-.26c-7.09-1.34-13.13-7.71-14.36-15.13a21.63,21.63,0,0,1,7.6-19.64c6-5,14.31-6.35,20.71-3.32h0c12.5,5.92,7.86,18.31,4.47,27.37l-.32.86C180.29,96.36,173.8,100.49,167.23,100.49Zm3.72-38A18.9,18.9,0,0,0,159,67,19.62,19.62,0,0,0,152,84.77c1.1,6.63,6.47,12.3,12.76,13.5,6.52,1.23,13.63-2.63,15.86-8.6l.32-.87c3.46-9.24,7.38-19.72-3.45-24.85h0A15.32,15.32,0,0,0,171,62.53Z" fill="#093f68"></path><path d="M179.32,75.64a30.27,30.27,0,0,0-10,14.64,13.94,13.94,0,0,0-.58,7.66,4.19,4.19,0,0,0,1.76,2.67c1.77,1,4-.26,5.43-1.68,4.86-4.72,9.67-11.22,11.65-17.75.59-2,1.28-5-.54-6.54s-4.74-1.07-6.59.21C180,75.1,179.67,75.36,179.32,75.64Z" fill="#093f68"></path><path d="M171.85,102a3.89,3.89,0,0,1-1.89-.49,5.1,5.1,0,0,1-2.24-3.29,14.72,14.72,0,0,1,.59-8.21,31.47,31.47,0,0,1,10.4-15.14h0c.37-.28.74-.55,1.12-.81,2.19-1.52,5.46-2.15,7.81-.15s1.55,5.25.84,7.59c-1.79,6-6.13,12.57-11.91,18.18A7.1,7.1,0,0,1,171.85,102Zm8.08-25.54a29.31,29.31,0,0,0-9.71,14.15,12.77,12.77,0,0,0-.56,7.1,3.29,3.29,0,0,0,1.28,2.06c1.24.7,3-.33,4.24-1.53,5.54-5.37,9.69-11.69,11.39-17.32.86-2.83.78-4.62-.23-5.49-1.53-1.3-3.86-.77-5.38.27l-1,.76Z" fill="#093f68"></path><path d="M262.06,193.6c-6.38-19.81-40.12-30.47-41.55-30.47H190.09c-1.43,0-35.17,10.66-41.55,30.47-3.69,11.45,11.31,22.62,20.58,28.27l8.41-13.82c-5.49-3.34-11.37-8.24-13.09-10.81,2.55-5.67,9.4-10.58,15.73-14V221h50.25V183.22c6.34,3.44,13.19,8.34,15.74,14A45.51,45.51,0,0,1,234,208.38l9.37,12.29C252.66,215,265.74,205.05,262.06,193.6Z" fill="#D76E75"></path><path d="M169.12,222.87a1,1,0,0,1-.52-.15c-9.52-5.8-24.91-17.33-21-29.43,6.54-20.31,40.83-31.16,42.5-31.16h30.42c1.67,0,36,10.85,42.5,31.16h0c2.92,9.09-3.68,18.85-19.1,28.23a1,1,0,0,1-1.31-.24L233.22,209a1,1,0,0,1,.28-1.46A45.34,45.34,0,0,0,245,197.14c-2.51-5-8.47-9.28-13.59-12.22v36a1,1,0,0,1-1,1H180.17a1,1,0,0,1-1-1v-36c-5.11,2.94-11.06,7.21-13.57,12.22,2,2.59,7.5,7.05,12.45,10.06a1,1,0,0,1,.33,1.37L170,222.39a1,1,0,0,1-.85.48Zm51.34-58.74H190.09c-2.15.24-34.52,10.9-40.6,29.77-3.37,10.47,10.25,20.95,19.3,26.59l7.37-12.11c-5.29-3.35-10.8-8-12.55-10.58a1,1,0,0,1-.08-1c2.79-6.24,10.33-11.33,16.17-14.5a1,1,0,0,1,1.47.88V220h48.25V183.22a1,1,0,0,1,.49-.86,1,1,0,0,1,1,0c5.83,3.17,13.37,8.26,16.17,14.49a1,1,0,0,1-.08,1,46.55,46.55,0,0,1-11.52,10.84l8.17,10.7c9.93-6.17,20.68-15.46,17.47-25.44C255,175,222.66,164.37,220.46,164.13Z" fill="#093f68"></path><path d="M205.57,215.28a.92.92,0,0,1-.63-.26L187.31,197.5a.89.89,0,0,1,0-1.24l6.56-7.1a.88.88,0,0,1,.66-.29h22.62a.92.92,0,0,1,.66.29l4.76,5.23a.9.9,0,0,1,0,1.18L206.26,215a.91.91,0,0,1-.65.32Zm-16.38-18.44,16.32,16.21,15.18-18-4-4.34H194.9Z" fill="#fff"></path><path d="M229.24,167.61c0,6.64-23.94,14.88-23.94,14.88s-24-8.24-24-14.88,10.72-9.17,24-9.17S229.24,161,229.24,167.61Z" fill="#f56132"></path><path d="M205.3,183.39a.71.71,0,0,1-.29,0c-2.52-.86-24.55-8.65-24.55-15.73,0-6.49,8.82-10.07,24.84-10.07s24.84,3.58,24.84,10.07c0,7.08-22,14.87-24.55,15.73A.71.71,0,0,1,205.3,183.39Zm0-24c-14.65,0-23.05,3-23.05,8.27,0,4.33,14,10.79,23.05,13.93,9-3.14,23-9.6,23-13.93C228.35,162.35,220,159.34,205.3,159.34Z" fill="#093f68"></path><path d="M200.29,164.54s-.28,12.46,5,18c0,0,5.55-5.71,5.55-18.64Z" fill="#093f68"></path><path d="M205.3,183.49a1,1,0,0,1-.72-.3c-5.51-5.73-5.3-18.14-5.29-18.67a1,1,0,0,1,.94-1l10.56-.68a1,1,0,0,1,1.06,1c0,13.18-5.6,19.09-5.83,19.34A1,1,0,0,1,205.3,183.49Zm-4-18c0,2.73.52,10.89,4,15.44,1.38-1.93,4.34-7.1,4.57-16Z" fill="#093f68"></path><ellipse cx="205.57" cy="110.16" rx="36.99" ry="40.16" fill="#725858"></ellipse><path d="M205.57,151.32c-20.95,0-38-18.46-38-41.16s17-41.17,38-41.17,38,18.47,38,41.17S226.52,151.32,205.57,151.32Zm0-80.33c-19.84,0-36,17.57-36,39.17s16.15,39.16,36,39.16,36-17.57,36-39.16S225.42,71,205.57,71Z" fill="#093f68"></path><path d="M200.29,157.05h10.56a0,0,0,0,1,0,0v6.08a4.48,4.48,0,0,1-4.48,4.48h-1.59a4.48,4.48,0,0,1-4.48-4.48v-6.08A0,0,0,0,1,200.29,157.05Z" fill="#ffc9b0"></path><path d="M206.37,168.61h-1.6a5.49,5.49,0,0,1-5.48-5.48v-6.08a1,1,0,0,1,1-1h10.56a1,1,0,0,1,1,1v6.08A5.49,5.49,0,0,1,206.37,168.61Zm-5.08-10.56v5.08a3.48,3.48,0,0,0,3.48,3.48h1.6a3.48,3.48,0,0,0,3.48-3.48v-5.08Z" fill="#093f68"></path><ellipse cx="175.39" cy="129.62" rx="10.26" ry="8.84" fill="#ffc9b0"></ellipse><path d="M175.4,139.46c-6.21,0-11.26-4.41-11.26-9.84s5.05-9.84,11.26-9.84,11.25,4.42,11.25,9.84S181.6,139.46,175.4,139.46Zm0-17.68c-5.11,0-9.26,3.52-9.26,7.84s4.15,7.84,9.26,7.84,9.25-3.51,9.25-7.84S180.5,121.78,175.4,121.78Z" fill="#093f68"></path><ellipse cx="235.2" cy="129.62" rx="10.26" ry="8.84" fill="#ffc9b0"></ellipse><path d="M235.2,139.46c-6.21,0-11.26-4.41-11.26-9.84s5.05-9.84,11.26-9.84,11.26,4.42,11.26,9.84S241.41,139.46,235.2,139.46Zm0-17.68c-5.1,0-9.26,3.52-9.26,7.84s4.16,7.84,9.26,7.84,9.26-3.51,9.26-7.84S240.31,121.78,235.2,121.78Z" fill="#093f68"></path><path d="M225.56,101.68a88.58,88.58,0,0,0-12.09-6.35,60.94,60.94,0,0,0,5,9.48,37.87,37.87,0,0,1-15.33-10.16c-.32-.34-4-4.18-4-4.24a34.88,34.88,0,0,1-7.06,12.18,57.68,57.68,0,0,1-8.47,6.85,15.72,15.72,0,0,1-6.52,3c-2.1.37-2.16,1.11-2.42,3.24-.47,3.91,0,7.86,0,11.79a30.94,30.94,0,0,0,61.88,0c0-4,.59-8.4.17-12.31-.5-4.67-5.68-9.48-9.16-12.11C226.88,102.59,226.22,102.13,225.56,101.68Z" fill="#ffc9b0"></path><path d="M205.57,159.44a32,32,0,0,1-31.94-31.94c0-1.25,0-2.53-.09-3.77a52.84,52.84,0,0,1,.14-8.14c.27-2.21.44-3.61,3.24-4.1a14.83,14.83,0,0,0,6.12-2.86,56.17,56.17,0,0,0,8.32-6.74,33.4,33.4,0,0,0,6.84-11.83h0a1,1,0,0,1,1.28-.59.94.94,0,0,1,.49.38c.3.35,2.06,2.18,2.92,3.08l1,1a37.25,37.25,0,0,0,4.42,4.09,36.81,36.81,0,0,0,7.75,4.69,62.46,62.46,0,0,1-3.52-7,1,1,0,0,1,1.35-1.3,88.69,88.69,0,0,1,12.22,6.43h0c.7.47,1.38,1,2,1.43,2.68,2,9,7.33,9.55,12.8a50.36,50.36,0,0,1,0,8c-.08,1.55-.16,3-.16,4.46A32,32,0,0,1,205.57,159.44ZM199.5,92.27a33.9,33.9,0,0,1-6.7,11,59,59,0,0,1-8.61,7,16.94,16.94,0,0,1-6.93,3.2c-1.33.23-1.34.27-1.58,2.28a51.29,51.29,0,0,0-.14,7.92c0,1.26.09,2.55.09,3.84a29.94,29.94,0,0,0,59.88,0c0-1.49.08-3,.16-4.56a51.32,51.32,0,0,0,0-7.64c-.52-4.84-6.85-10-8.77-11.43-.61-.45-1.25-.91-1.92-1.35h0a72.35,72.35,0,0,0-9.53-5.16,59.13,59.13,0,0,0,3.86,6.91,1,1,0,0,1-.06,1.16,1,1,0,0,1-1.12.32,39.13,39.13,0,0,1-15.73-10.42l-1-1Z" fill="#093f68"></path><circle cx="191.25" cy="122.99" r="2.86" fill="#093f68"></circle><circle cx="220.8" cy="122.99" r="2.86" fill="#093f68"></circle><path d="M205.29,139.47a18.6,18.6,0,0,1-2.81-.23,1,1,0,0,1,.34-2,13.49,13.49,0,0,0,4.13.06c.11-.9-1-3.87-2.4-6.63a1,1,0,0,1,1.77-.93c1,1.94,3.27,6.65,2.43,8.52a1.66,1.66,0,0,1-1.11.94A10.25,10.25,0,0,1,205.29,139.47Z" fill="#093f68"></path><path d="M197.1,114.78h0l-13.66,0a1.6,1.6,0,0,1-1.59-1.6,1.59,1.59,0,0,1,1.59-1.58h0l13.66,0a1.59,1.59,0,0,1,0,3.18Z" fill="#093f68"></path><path d="M216.58,115.11a1.59,1.59,0,0,1-.08-3.18l13.64-.7a1.59,1.59,0,1,1,.16,3.18l-13.64.7Z" fill="#093f68"></path><path d="M206.5,149.59a17.14,17.14,0,0,1-13.81-7.07,1,1,0,1,1,1.68-1.08h0c.25.39,6.31,9.48,18.9,4.85a1,1,0,0,1,.69,1.87A21.43,21.43,0,0,1,206.5,149.59Z" fill="#093f68"></path><path d="M176.08,210.43l4.09,4s.68,13.21-.48,14-10.27,3.75-10.27,1.87,5-3.66,5-3.66-4.32-2.21-4.57-6Z" fill="#ffc9b0"></path><path d="M170.71,231.9a3.17,3.17,0,0,1-1.46-.27,1.46,1.46,0,0,1-.83-1.33c0-1.68,2.15-3,3.88-3.86a8.24,8.24,0,0,1-3.45-5.7,1.1,1.1,0,0,1,.14-.59l6.24-10.24a1,1,0,0,1,.73-.48,1,1,0,0,1,.82.28l4.09,4a1,1,0,0,1,.3.67c.71,13.77-.47,14.58-.91,14.89C179.48,229.78,173.82,231.9,170.71,231.9Zm-.1-2c1.83.08,7.17-1.57,8.38-2.26.46-1.2.47-7.41.21-12.83L176.29,212l-5.41,8.88c.41,3,4,4.83,4,4.85a1,1,0,0,1,.54,1,1,1,0,0,1-.66.87A11.36,11.36,0,0,0,170.61,229.94Z" fill="#093f68"></path><path d="M235,209.72l-4.59,4.55s0,13.09,1.29,13.71,12,2.23,11.74.38S238,225.5,238,225.5s5.19-2.26,4.87-6Z" fill="#ffc9b0"></path><path d="M240.55,230.21a35.67,35.67,0,0,1-9.25-1.33c-.55-.27-1.83-.89-1.85-14.6a1,1,0,0,1,.3-.72l4.58-4.55a1,1,0,0,1,.76-.29,1,1,0,0,1,.73.37l7.82,9.77a1,1,0,0,1,.21.54c.23,2.62-1.66,4.57-3.28,5.74,1.73.58,3.67,1.56,3.9,3.07a1.41,1.41,0,0,1-.6,1.4A6.36,6.36,0,0,1,240.55,230.21Zm-8.21-3.06c1.44.49,7.86,1.36,9.88,1a11.63,11.63,0,0,0-4.42-1.67,1,1,0,0,1-.21-1.9s4.24-1.9,4.28-4.73L235,211.21l-3.49,3.48C231.48,219.94,231.82,225.93,232.34,227.15Z" fill="#093f68"></path><polygon points="230.13 238.84 173.89 238.84 180.37 220.67 230.13 220.67 230.13 238.84" fill="#093f68"></polygon><path d="M230.13,239.84H173.89a1,1,0,0,1-.94-1.33l6.48-18.18a1,1,0,0,1,.94-.66h49.76a1,1,0,0,1,1,1v18.17A1,1,0,0,1,230.13,239.84Zm-54.82-2h53.82V221.67H181.07Z" fill="#093f68"></path><path d="M241.77,115.58s-3.2,1.12-5.44-.64-5.76-7-10.08-7.84-11.84,5.15-18.08,4.42-8.31-3.6-17.27-4.49-14.88,5.51-18.07,5.51-4.64-.16-4.64-.16v12.15s4,.17,6.08,2.88,6.87,8.48,11.67,9.92,16.08-4.79,19.32-3.68,9.31,5,15.88,4.81S235.2,126.14,238.08,126a31.15,31.15,0,0,1,4.32,0Zm-41.72,9.54c-.83,2.95-5.33,4.25-10,2.92s-7.87-4.81-7-7.76,5.33-4.25,10-2.92S200.89,122.17,200.05,125.12ZM220.59,128c-4.72,1.33-9.22,0-10.05-2.92s2.31-6.42,7-7.76,9.22,0,10.05,2.92S225.31,126.71,220.59,128Z" fill="#093f68" stroke="#093f68" stroke-linecap="round" stroke-linejoin="round" stroke-width="2"></path><path d="M175.28,104s-4.07,14.15,1.72,20.47c0,0,6.54-20.68,11.38-26" fill="#725858"></path><path d="M177,125.42a1,1,0,0,1-.74-.32c-6.1-6.66-2.12-20.82-1.94-21.42a1,1,0,0,1,1.23-.69,1,1,0,0,1,.69,1.24c0,.13-3.28,11.66.41,18,1.75-5.26,6.88-20,11-24.54a1,1,0,0,1,1.41-.08,1,1,0,0,1,.07,1.42c-4.63,5.13-11.11,25.46-11.17,25.66a1,1,0,0,1-.74.68Z" fill="#093f68"></path><path d="M205.3,182.49s-6.42,3.27-7,10C198.35,192.5,204.21,191.65,205.3,182.49Z" fill="#f56132"></path><path d="M198.35,193.4a.9.9,0,0,1-.62-.25.88.88,0,0,1-.28-.72c.57-7.16,7.16-10.6,7.44-10.74a.9.9,0,0,1,1.3.91c-1.15,9.72-7.45,10.75-7.71,10.79Zm5.72-9a12.2,12.2,0,0,0-4.61,6.78C200.86,190.47,203.07,188.72,204.07,184.39Z" fill="#093f68"></path><path d="M205.3,182.49s.18,7.28,7.33,9.42C212.63,191.91,214.67,186.24,205.3,182.49Z" fill="#f56132"></path><path d="M212.63,192.81a.78.78,0,0,1-.26,0c-7.68-2.3-8-10.18-8-10.25a.88.88,0,0,1,.39-.76.87.87,0,0,1,.84-.1c10.07,4,7.87,10.49,7.85,10.55A.91.91,0,0,1,212.63,192.81ZM206.41,184a9.2,9.2,0,0,0,5.51,6.75C212,189.27,211.38,186.37,206.41,184Z" fill="#093f68"></path></g></svg>