<svg width="32" height="32" viewBox="0 0 32 32" fill="none" xmlns="http://www.w3.org/2000/svg">
    <path
        d="M13.512 14.045L15.658 12.077C16.2453 11.5383 16.6582 10.8363 16.8439 10.0613C17.0295 9.28624 16.9794 8.4734 16.7 7.72702L15.783 5.27902C15.4408 4.36563 14.7631 3.61712 13.8881 3.18605C13.0132 2.75497 12.0067 2.67378 11.074 2.95902C7.64199 4.00902 5.00399 7.19902 5.81599 10.988C6.34999 13.48 7.37099 16.608 9.30799 19.937C10.9311 22.7407 12.9729 25.28 15.363 27.467C18.233 30.079 22.333 29.426 24.971 26.967C25.6781 26.3077 26.1072 25.4035 26.1707 24.4388C26.2343 23.4741 25.9275 22.5214 25.313 21.775L23.632 19.733C23.1254 19.1172 22.4462 18.6669 21.6818 18.4399C20.9174 18.2129 20.1026 18.2196 19.342 18.459L16.566 19.334C16.459 19.224 16.336 19.093 16.2 18.942C15.6293 18.3106 15.1243 17.6227 14.693 16.889C14.2734 16.1485 13.9303 15.3671 13.669 14.557C13.6131 14.3875 13.5608 14.2167 13.512 14.045Z"
        fill="current" />
</svg>