<?xml version="1.0" standalone="no"?>
<!DOCTYPE svg PUBLIC "-//W3C//DTD SVG 20010904//EN"
 "http://www.w3.org/TR/2001/REC-SVG-20010904/DTD/svg10.dtd">
<svg version="1.0" xmlns="http://www.w3.org/2000/svg"
 width="64.000000pt" height="64.000000pt" viewBox="0 0 64.000000 64.000000"
 preserveAspectRatio="xMidYMid meet">

<g transform="translate(0.000000,64.000000) scale(0.100000,-0.100000)"
fill="#000000" stroke="none">
<path d="M81 524 c-19 -24 -21 -40 -21 -161 0 -173 9 -193 88 -193 41 0 42 -1
42 -34 0 -19 4 -38 10 -41 5 -3 43 12 83 35 70 38 78 40 163 40 49 0 94 4 100
8 27 18 34 56 34 185 0 121 -2 137 -21 161 l-20 26 -219 0 -219 0 -20 -26z
m463 -20 c12 -31 7 -289 -6 -302 -8 -8 -47 -12 -107 -12 -88 0 -100 -3 -146
-30 -27 -16 -53 -30 -57 -30 -5 0 -8 14 -8 30 0 30 -1 30 -53 30 -29 0 -58 5
-65 12 -13 13 -18 271 -6 302 5 14 35 16 224 16 189 0 219 -2 224 -16z"/>
<path d="M170 435 c0 -13 23 -15 150 -15 127 0 150 2 150 15 0 13 -23 15 -150
15 -127 0 -150 -2 -150 -15z"/>
<path d="M170 360 c0 -6 57 -10 150 -10 93 0 150 4 150 10 0 6 -57 10 -150 10
-93 0 -150 -4 -150 -10z"/>
<path d="M170 280 c0 -6 57 -10 150 -10 93 0 150 4 150 10 0 6 -57 10 -150 10
-93 0 -150 -4 -150 -10z"/>
</g>
</svg>
