<?xml version="1.0" standalone="no"?>
<!DOCTYPE svg PUBLIC "-//W3C//DTD SVG 20010904//EN"
 "http://www.w3.org/TR/2001/REC-SVG-20010904/DTD/svg10.dtd">
<svg version="1.0" xmlns="http://www.w3.org/2000/svg"
 width="512.000000pt" height="512.000000pt" viewBox="0 0 512.000000 512.000000"
 preserveAspectRatio="xMidYMid meet">

<g transform="translate(0.000000,512.000000) scale(0.100000,-0.100000)"
fill="#000000" stroke="none">
<path d="M1128 3480 c-42 -23 -76 -65 -84 -109 -16 -78 -39 -51 741 -831 636
-637 740 -737 777 -747 92 -28 52 -62 851 735 791 790 763 758 737 845 -15 53
-77 114 -125 123 -92 17 -54 50 -768 -668 l-658 -662 -657 656 c-361 361 -667
661 -679 667 -33 17 -94 12 -135 -9z"/>
</g>
</svg>
