<svg width="16" height="16" viewBox="0 0 16 16" fill="none" xmlns="http://www.w3.org/2000/svg">
    <path
        d="M9.78001 12.78C9.63939 12.9205 9.44876 12.9993 9.25001 12.9993C9.05126 12.9993 8.86064 12.9205 8.72001 12.78L4.47001 8.53C4.32956 8.38938 4.25067 8.19876 4.25067 8.00001C4.25067 7.80125 4.32956 7.61063 4.47001 7.47001L8.72001 3.22001C8.86227 3.0876 9.05032 3.01549 9.24464 3.01885C9.43896 3.02221 9.62441 3.10076 9.76201 3.23801C9.89925 3.37561 9.97781 3.56106 9.98117 3.75538C9.98452 3.94969 9.91242 4.13774 9.78001 4.28001L6.06001 8.00001L9.78001 11.72C9.92046 11.8606 9.99935 12.0513 9.99935 12.25C9.99935 12.4488 9.92046 12.6394 9.78001 12.78Z"
        fill="current" />
</svg>