<svg width="465" height="173" viewBox="0 0 465 173" fill="none" xmlns="http://www.w3.org/2000/svg">
    <path
        d="M64.875 86.5H64.9471M108.125 86.5H108.197M72.0833 115.333C75.6875 117.496 80.7333 118.938 86.5 118.938C92.2667 118.938 97.3125 117.496 100.917 115.333"
        stroke="#D76E75" stroke-width="13" stroke-linecap="round" stroke-linejoin="round" />
    <path
        d="M136.958 45.4125C143.489 53.5988 147.941 63.2443 149.933 73.525C152.371 74.7055 154.426 76.5487 155.865 78.8435C157.303 81.1382 158.066 83.7917 158.066 86.5C158.066 89.2083 157.303 91.8618 155.865 94.1565C154.426 96.4513 152.371 98.2945 149.933 99.475C146.821 113.989 138.826 126.997 127.282 136.328C115.739 145.659 101.344 150.749 86.5 150.749C71.6563 150.749 57.2615 145.659 45.7175 136.328C34.1735 126.997 26.1786 113.989 23.0667 99.475C20.6292 98.2945 18.5736 96.4513 17.1353 94.1565C15.6969 91.8618 14.9341 89.2083 14.9341 86.5C14.9341 83.7917 15.6969 81.1382 17.1353 78.8435C18.5736 76.5487 20.6292 74.7055 23.0667 73.525C26.0528 58.8957 33.9937 45.7442 45.5497 36.2894C57.1056 26.8346 71.5691 21.6551 86.5 21.625C100.917 21.625 111.729 29.5542 111.729 39.6458C111.729 49.7375 105.242 57.6667 97.3125 57.6667C91.5458 57.6667 86.5 54.7833 86.5 50.4583"
        stroke="#D76E75" stroke-width="13" stroke-linecap="round" stroke-linejoin="round" />
    <path
        d="M299.625 80.3875C299.625 82.3125 298.937 83.9625 297.562 85.3375C296.187 86.7125 294.675 87.2625 292.75 87.2625H292.062L277.487 85.75C277.212 89.325 277.212 93.0375 277.212 96.8875L293.437 98.5375C295.087 98.8125 296.6 99.5 297.837 100.738C298.937 102.112 299.625 103.625 299.625 105.275C299.625 107.338 298.937 108.988 297.562 110.225C296.187 111.6 294.675 112.15 292.75 112.15H292.062L277.212 110.775C277.212 111.188 277.212 112.012 277.212 113.25C277.212 114.625 277.35 115.587 277.35 116.275V116.413C277.35 118.338 276.663 119.988 275.287 121.225C273.912 122.6 272.4 123.15 270.475 123.15C268.55 123.15 267.037 122.6 265.662 121.362C264.287 120.125 263.6 118.613 263.6 116.688C263.325 111.463 263.325 106.375 263.325 101.562C263.325 88.0875 264.012 77.225 265.387 68.8375C265.662 67.1875 266.35 65.95 267.725 64.85C268.963 63.75 270.475 63.2 272.125 63.2C272.95 63.2 273.775 63.475 274.737 63.75C275.975 64.3 277.075 65.125 277.9 66.225C278.725 67.325 279.137 68.5625 279.137 69.9375C279.137 70.35 279 71.0375 278.862 72.1375L293.437 73.5125C295.087 73.7875 296.6 74.475 297.837 75.7125C298.937 77.0875 299.625 78.6 299.625 80.3875ZM224.963 76.95C225.238 78.4625 225.375 79.975 225.375 81.4875C225.375 85.3375 224.55 89.6 222.9 94.275C221.8 97.575 220.7 100.875 219.325 104.175C218.087 107.2 216.987 109.813 215.887 112.012C214.512 114.488 212.45 115.725 209.7 115.725C207.775 115.725 206.125 115.038 204.887 113.662C203.512 112.425 202.825 110.775 202.825 108.85C202.825 107.75 203.1 106.787 203.65 105.825C204.475 104.038 205.437 101.837 206.537 99.225C207.362 97.025 208.462 93.8625 209.838 89.875C210.937 86.575 211.625 83.825 211.625 81.4875C211.625 79.5625 211.075 78.05 210.25 76.95C208.875 75.3 205.437 74.3375 200.075 74.0625C198.425 74.0625 196.912 73.375 195.675 72.275C194.438 71.175 193.75 69.9375 193.475 68.2875C193.338 67.875 193.338 67.4625 193.338 67.05C193.338 65.125 194.025 63.475 195.4 62.1C196.775 60.725 198.425 60.0375 200.35 60.0375H202.412C207.362 60.45 211.762 61.6875 215.337 63.6125C217.675 63.3375 220.012 63.0625 222.487 63.0625C233.212 63.0625 241.05 65.95 245.863 71.5875C248.475 74.75 249.987 78.4625 250.4 82.725C250.4 83.55 250.537 84.2375 250.537 84.925C250.537 88.6375 249.712 92.625 248.2 97.025C247.1 100.188 246 103.488 244.625 106.925C243.387 109.95 242.288 112.425 241.187 114.625C239.812 117.237 237.75 118.475 235 118.475C233.075 118.475 231.425 117.788 230.187 116.413C228.812 115.038 228.125 113.525 228.125 111.6C228.125 110.5 228.4 109.538 228.95 108.438C229.775 106.787 230.737 104.588 231.838 101.837C232.662 99.6375 233.762 96.475 235.138 92.4875C236.237 89.6 236.787 87.125 236.787 84.925C236.787 83 236.237 81.625 235.413 80.525C233.625 78.4625 230.187 77.225 224.963 76.95ZM369.853 121.775H369.441C358.716 120.95 348.953 120.537 340.153 120.537C333.828 120.537 328.053 120.813 322.966 121.225C319.528 121.5 316.366 121.775 313.616 122.188C313.341 122.325 312.928 122.325 312.653 122.325C311.141 122.325 309.766 121.913 308.666 121.088C307.428 120.263 306.603 119.025 306.191 117.65C305.916 116.963 305.778 116.275 305.778 115.45C305.778 113.8 306.328 112.288 307.428 110.913C308.528 109.675 309.903 108.85 311.553 108.575C319.253 107.475 328.878 106.787 340.153 106.787C349.228 106.787 359.403 107.2 370.403 108.025C372.053 108.163 373.566 108.85 374.803 110.225C376.041 111.6 376.728 113.113 376.728 114.9C376.728 116.825 376.041 118.475 374.666 119.85C373.291 121.225 371.778 121.775 369.853 121.775ZM358.441 83.6875C360.366 83.6875 361.878 84.375 363.253 85.75C364.628 87.125 365.316 88.6375 365.316 90.5625C365.316 92.4875 364.628 94 363.391 95.375C362.153 96.75 360.641 97.4375 358.853 97.4375L331.628 98.95H330.803C326.953 98.95 323.791 97.575 321.041 94.825C318.291 92.075 316.916 88.6375 316.916 84.5125C316.916 82.0375 317.466 79.5625 318.841 77.225C320.216 74.75 322.278 72.825 325.028 71.45L347.028 61.1375C347.578 60.8625 347.991 60.175 347.991 59.2125C347.991 58.6625 347.716 58.1125 347.441 57.7C347.166 57.2875 346.753 57.0125 346.341 57.0125C342.078 57.0125 335.616 57.425 326.953 57.975H326.403C324.478 57.975 322.966 57.425 321.591 56.05C320.216 54.675 319.528 53.025 319.528 51.1C319.528 49.3125 320.078 47.8 321.316 46.425C322.553 45.05 324.066 44.3625 325.991 44.225C334.928 43.675 341.666 43.2625 346.203 43.2625H346.478C350.603 43.2625 354.178 44.9125 357.203 47.9375C360.228 50.9625 361.741 54.8125 361.741 59.2125C361.741 62.1 361.053 64.7125 359.678 67.1875C358.028 70.075 355.691 72.1375 352.803 73.5125L330.941 83.9625C330.666 84.2375 330.666 84.375 330.666 84.5125C330.666 84.7875 330.666 85.0625 330.941 85.2L358.028 83.6875H358.441ZM452.031 121.775H451.618C440.893 120.95 431.131 120.537 422.331 120.537C416.006 120.537 410.231 120.813 405.143 121.225C401.706 121.5 398.543 121.775 395.793 122.188C395.518 122.325 395.106 122.325 394.831 122.325C393.318 122.325 391.943 121.913 390.843 121.088C389.606 120.263 388.781 119.025 388.368 117.65C388.093 116.963 387.956 116.275 387.956 115.45C387.956 113.8 388.506 112.288 389.606 110.913C390.706 109.675 392.081 108.85 393.731 108.575C401.431 107.475 411.056 106.787 422.331 106.787C431.406 106.787 441.581 107.2 452.581 108.025C454.231 108.163 455.743 108.85 456.981 110.225C458.218 111.6 458.906 113.113 458.906 114.9C458.906 116.825 458.218 118.475 456.843 119.85C455.468 121.225 453.956 121.775 452.031 121.775ZM440.618 83.6875C442.543 83.6875 444.056 84.375 445.431 85.75C446.806 87.125 447.493 88.6375 447.493 90.5625C447.493 92.4875 446.806 94 445.568 95.375C444.331 96.75 442.818 97.4375 441.031 97.4375L413.806 98.95H412.981C409.131 98.95 405.968 97.575 403.218 94.825C400.468 92.075 399.093 88.6375 399.093 84.5125C399.093 82.0375 399.643 79.5625 401.018 77.225C402.393 74.75 404.456 72.825 407.206 71.45L429.206 61.1375C429.756 60.8625 430.168 60.175 430.168 59.2125C430.168 58.6625 429.893 58.1125 429.618 57.7C429.343 57.2875 428.931 57.0125 428.518 57.0125C424.256 57.0125 417.793 57.425 409.131 57.975H408.581C406.656 57.975 405.143 57.425 403.768 56.05C402.393 54.675 401.706 53.025 401.706 51.1C401.706 49.3125 402.256 47.8 403.493 46.425C404.731 45.05 406.243 44.3625 408.168 44.225C417.106 43.675 423.843 43.2625 428.381 43.2625H428.656C432.781 43.2625 436.356 44.9125 439.381 47.9375C442.406 50.9625 443.918 54.8125 443.918 59.2125C443.918 62.1 443.231 64.7125 441.856 67.1875C440.206 70.075 437.868 72.1375 434.981 73.5125L413.118 83.9625C412.843 84.2375 412.843 84.375 412.843 84.5125C412.843 84.7875 412.843 85.0625 413.118 85.2L440.206 83.6875H440.618Z"
        fill="#D76E75" />
</svg>