<svg width="16" height="16" viewBox="0 0 16 16" fill="none" xmlns="http://www.w3.org/2000/svg">
    <path
        d="M6.22 3.22001C6.36062 3.07956 6.55125 3.00067 6.75 3.00067C6.94875 3.00067 7.13937 3.07956 7.28 3.22001L11.53 7.47001C11.6704 7.61064 11.7493 7.80126 11.7493 8.00001C11.7493 8.19876 11.6704 8.38939 11.53 8.53001L7.28 12.78C7.13773 12.9124 6.94968 12.9845 6.75537 12.9812C6.56105 12.9778 6.3756 12.8993 6.238 12.762C6.10075 12.6244 6.0222 12.439 6.01884 12.2446C6.01548 12.0503 6.08759 11.8623 6.22 11.72L9.94 8.00001L6.22 4.28001C6.07955 4.13939 6.00066 3.94876 6.00066 3.75001C6.00066 3.55126 6.07955 3.36064 6.22 3.22001Z"
        fill="current" />
</svg>